<svg xmlns="http://www.w3.org/2000/svg" width="174" height="130" viewBox="0 0 46.0375 34.395834"><g transform="translate(0 -262.604)"><rect width="46.038" height="34.396" y="262.604" ry=".802" fill="#fff"/><path d="M24.94 274.065c-.91 0-1.642.71-1.69 1.608h-3.493v-.223c0-.62-.498-1.117-1.117-1.117-.618 0-1.116.498-1.116 1.117v.223h-.363c-1.68 0-3.032 1.353-3.032 3.034v3.852c0 1.68 1.353 3.032 3.033 3.032h11.717c1.68 0 3.033-1.352 3.033-3.033v-3.853c0-1.68-1.353-3.034-3.033-3.034h-.193c-.047-.897-.78-1.608-1.69-1.608zm-2.19 3.932a2.725 2.725 0 0 1 2.726 2.726 2.725 2.725 0 0 1-2.725 2.724 2.725 2.725 0 0 1-2.725-2.724 2.725 2.725 0 0 1 2.726-2.726z" fill="#646464"/><g transform="matrix(1.33734 0 0 1.33734 5.327 -99.67)" fill="none" stroke="#c8c8c8" stroke-width="1.323"><circle r="11.025" cy="283.771" cx="13.229"/><path d="M5.423 291.63l15.613-15.653"/></g></g></svg>