<svg xmlns="http://www.w3.org/2000/svg" width="100" height="100" viewBox="0 0 26.458 26.458"><path d="M10.472 5.584c-.78-.06-3.37 4.013-3.762 4.69-.435.753-2.9 2.483-2.523 3.267.11.23.704.407 1.475.542v4.122c0 1.256 1.01 2.268 2.268 2.268h5.102c1.257 0 2.268-1.012 2.268-2.268v-4.156c.744-.13 1.312-.295 1.457-.507.44-.645-1.79-1.996-2.18-2.673-.435-.753-3.238-5.218-4.105-5.283zm-.08 9.596h1.236c.64 0 1.157.516 1.157 1.157v2.316c0 .64-.516 1.157-1.157 1.157h-1.235c-.642 0-1.158-.516-1.158-1.157v-2.316c0-.64.516-1.157 1.158-1.157z"/><path d="M20.637 11.18c.615 1.824.296 3.335-.55 3.763-2.374 1.205-2.52-.427-2.52-.427l-1.235 2.482 2.665.456s-.43-.996 1.823-1.558c2.153-.537 2.722-2.613 1.425-5.11z" stroke="#000" stroke-width=".417"/></svg>